<?xml version="1.0" encoding="UTF-8"?>
<svg width="1200pt" height="1200pt" version="1.1" viewBox="0 0 1200 1200" xmlns="http://www.w3.org/2000/svg">
 <path d="m600 60c-297.6 0-540 242.4-540 540s242.4 540 540 540 540-242.4 540-540-242.4-540-540-540zm267.6 486c-4.8008-132-31.199-246-74.398-331.2 126 63.602 216 186 234 331.2zm-462-331.2c-42 85.199-69.602 199.2-74.402 331.2h-159.6c19.199-145.2 109.2-267.6 234-331.2zm-73.203 439.2c7.1992 135.6 38.398 253.2 87.602 337.2-133.2-60-228-187.2-248.4-337.2zm267.6 360c-61.199 0-146.4-135.6-159.6-360h319.2c-14.398 225.6-98.398 360-159.6 360zm-160.8-468c9.6016-235.2 97.199-378 160.8-378s150 142.8 160.8 378zm340.8 445.2c48-84 80.398-201.6 86.398-337.2h160.8c-19.199 150-115.2 277.2-247.2 337.2z"/>
</svg>
