<svg version="1.1" xmlns="http://www.w3.org/2000/svg" viewBox="0 0 1092 138" width="3276" height="414">
  <!-- svg-source:excalidraw -->
  
  <defs>
    <style class="style-fonts">
      @font-face {
        font-family: "Virgil";
        src: url("https://excalidraw.com/Virgil.woff2");
      }
      @font-face {
        font-family: "Cascadia";
        src: url("https://excalidraw.com/Cascadia.woff2");
      }
      @font-face {
        font-family: "Assistant";
        src: url("https://excalidraw.com/Assistant-Regular.woff2");
      }
    </style>
    
  </defs>
  <rect x="0" y="0" width="1092" height="138" fill="#ffffff"></rect><g stroke-linecap="round" transform="translate(10 11) rotate(0 66.5 58.5)"><path d="M29.25 0 C48.93 1.05, 68.31 0.2, 103.75 0 M29.25 0 C53.14 -1.25, 76.5 -0.97, 103.75 0 M103.75 0 C124.44 -0.38, 132.97 8.55, 133 29.25 M103.75 0 C122 -1.77, 131.33 9.37, 133 29.25 M133 29.25 C132.03 45.2, 132.35 62.85, 133 87.75 M133 29.25 C133 46.16, 131.75 61.34, 133 87.75 M133 87.75 C133.53 106.73, 121.3 117.88, 103.75 117 M133 87.75 C134.67 105.91, 124.17 117.17, 103.75 117 M103.75 117 C76.85 116.63, 52.65 117.88, 29.25 117 M103.75 117 C77.96 116.55, 51.74 116.63, 29.25 117 M29.25 117 C9.47 115.17, -0.03 108.74, 0 87.75 M29.25 117 C9.15 117.22, 0.01 105.76, 0 87.75 M0 87.75 C1.43 71.04, -1.22 51.88, 0 29.25 M0 87.75 C0.5 68.81, -0.48 49.59, 0 29.25 M0 29.25 C-0.32 9, 9.76 -0.38, 29.25 0 M0 29.25 C0.07 9.25, 9.03 1.18, 29.25 0" stroke="#1e1e1e" stroke-width="2" fill="none"></path></g><g transform="translate(38 31) rotate(0 37.90996551513672 37.5)"><text x="37.90996551513672" y="0" font-family="Virgil, Segoe UI Emoji" font-size="20px" fill="#1e1e1e" text-anchor="middle" style="white-space: pre;" direction="ltr" dominant-baseline="text-before-edge">User</text><text x="37.90996551513672" y="25" font-family="Virgil, Segoe UI Emoji" font-size="20px" fill="#1e1e1e" text-anchor="middle" style="white-space: pre;" direction="ltr" dominant-baseline="text-before-edge">inputs</text><text x="37.90996551513672" y="50" font-family="Virgil, Segoe UI Emoji" font-size="20px" fill="#1e1e1e" text-anchor="middle" style="white-space: pre;" direction="ltr" dominant-baseline="text-before-edge">location</text></g><g stroke-linecap="round" transform="translate(240 10) rotate(0 73.5 58.5)"><path d="M29.25 0 C58.67 1.46, 88.27 0.2, 117.75 0 M29.25 0 C48.61 0.34, 66.77 -0.07, 117.75 0 M117.75 0 C136.16 -1.54, 145.54 9.42, 147 29.25 M117.75 0 C136.71 1.43, 149.1 8.22, 147 29.25 M147 29.25 C146.33 44.92, 146.01 63.71, 147 87.75 M147 29.25 C146.74 49.22, 145.5 70.14, 147 87.75 M147 87.75 C148.45 106.09, 138.05 117.15, 117.75 117 M147 87.75 C147.79 108.45, 136.53 114.72, 117.75 117 M117.75 117 C92.68 118.56, 64.92 117.32, 29.25 117 M117.75 117 C92.08 116.05, 66.67 117.71, 29.25 117 M29.25 117 C9.23 117.19, 0.01 105.95, 0 87.75 M29.25 117 C9.97 115.28, -1.47 108.39, 0 87.75 M0 87.75 C0.86 67.18, 1.96 46.05, 0 29.25 M0 87.75 C-0.07 71.53, 0.1 55.88, 0 29.25 M0 29.25 C0.06 9.32, 9.12 1.03, 29.25 0 M0 29.25 C0.89 8.17, 11.47 -1.71, 29.25 0" stroke="#1e1e1e" stroke-width="2" fill="none"></path></g><g transform="translate(272.7800064086914 42) rotate(0 42.12995910644531 25)"><text x="42.12995910644531" y="0" font-family="Virgil, Segoe UI Emoji" font-size="20px" fill="#1e1e1e" text-anchor="middle" style="white-space: pre;" direction="ltr" dominant-baseline="text-before-edge">GeoApify</text><text x="42.12995910644531" y="25" font-family="Virgil, Segoe UI Emoji" font-size="20px" fill="#1e1e1e" text-anchor="middle" style="white-space: pre;" direction="ltr" dominant-baseline="text-before-edge">Api Call</text></g><g stroke-linecap="round" transform="translate(447 11) rotate(0 80.5 58.5)"><path d="M29.25 0 C65.04 -0.95, 103.15 1.15, 131.75 0 M29.25 0 C57.53 -0.15, 86.16 0.45, 131.75 0 M131.75 0 C150.78 1.24, 162.82 8.42, 161 29.25 M131.75 0 C150.98 -1.16, 162.44 9.32, 161 29.25 M161 29.25 C161.71 41.48, 159.16 57.82, 161 87.75 M161 29.25 C161.16 44.71, 160.83 61.4, 161 87.75 M161 87.75 C161.69 108.29, 150.62 115.02, 131.75 117 M161 87.75 C160.85 105.8, 152.53 118.03, 131.75 117 M131.75 117 C95.32 115.69, 59.28 116.63, 29.25 117 M131.75 117 C110.14 117.86, 89.04 117.12, 29.25 117 M29.25 117 C9.94 115.51, -1.28 108.24, 0 87.75 M29.25 117 C11.37 115.09, 0.42 107.68, 0 87.75 M0 87.75 C-1.02 66.67, -2.17 45.9, 0 29.25 M0 87.75 C0.03 72.18, -0.32 57.56, 0 29.25 M0 29.25 C0.78 8.37, 11.24 -1.49, 29.25 0 M0 29.25 C0.33 11.18, 10.38 0.78, 29.25 0" stroke="#1e1e1e" stroke-width="2" fill="none"></path></g><g transform="translate(470.1999969482422 42) rotate(0 56.70996856689453 25)"><text x="56.70996856689453" y="0" font-family="Virgil, Segoe UI Emoji" font-size="20px" fill="#1e1e1e" text-anchor="middle" style="white-space: pre;" direction="ltr" dominant-baseline="text-before-edge">Return</text><text x="56.70996856689453" y="25" font-family="Virgil, Segoe UI Emoji" font-size="20px" fill="#1e1e1e" text-anchor="middle" style="white-space: pre;" direction="ltr" dominant-baseline="text-before-edge">Long &amp; Lat</text></g><g stroke-linecap="round" transform="translate(675 11) rotate(0 84.5 58.5)"><path d="M29.25 0 C56.97 -0.69, 84.25 -1.74, 139.75 0 M29.25 0 C53.68 0.8, 79.49 -0.48, 139.75 0 M139.75 0 C159.02 -1.01, 170.25 9.38, 169 29.25 M139.75 0 C157.86 -0.8, 169.82 10.8, 169 29.25 M169 29.25 C168 39.61, 169.4 55.32, 169 87.75 M169 29.25 C169.58 43.92, 168.92 56.55, 169 87.75 M169 87.75 C168.87 105.99, 160.36 117.9, 139.75 117 M169 87.75 C170.22 106.23, 159.05 116.73, 139.75 117 M139.75 117 C111.51 116.81, 88.43 116.33, 29.25 117 M139.75 117 C105.64 115.54, 70.69 116.78, 29.25 117 M29.25 117 C11.16 115.34, 0.37 107.63, 0 87.75 M29.25 117 C11.02 118.7, 1.89 106.58, 0 87.75 M0 87.75 C-0.24 71.14, 0.13 54.56, 0 29.25 M0 87.75 C0.57 70.78, 0.93 54.45, 0 29.25 M0 29.25 C0.28 11, 10.3 0.68, 29.25 0 M0 29.25 C1.68 8.38, 11.04 0.79, 29.25 0" stroke="#1e1e1e" stroke-width="2" fill="none"></path></g><g transform="translate(705.1200103759766 42) rotate(0 53.789955139160156 25)"><text x="53.789955139160156" y="0" font-family="Virgil, Segoe UI Emoji" font-size="20px" fill="#1e1e1e" text-anchor="middle" style="white-space: pre;" direction="ltr" dominant-baseline="text-before-edge">Antipode</text><text x="53.789955139160156" y="25" font-family="Virgil, Segoe UI Emoji" font-size="20px" fill="#1e1e1e" text-anchor="middle" style="white-space: pre;" direction="ltr" dominant-baseline="text-before-edge">Calculation</text></g><g stroke-linecap="round" transform="translate(913 11) rotate(0 84.5 58.5)"><path d="M29.25 0 C60.69 -0.86, 94.86 0.13, 139.75 0 M29.25 0 C69.13 0.23, 109.87 0.55, 139.75 0 M139.75 0 C158.04 -0.69, 169.71 10.67, 169 29.25 M139.75 0 C157.19 -1.88, 169.6 9.16, 169 29.25 M169 29.25 C168.09 41.9, 169.41 53.64, 169 87.75 M169 29.25 C168.75 49.22, 169.37 70.9, 169 87.75 M169 87.75 C170.06 106.36, 159.07 116.77, 139.75 117 M169 87.75 C167.6 107.16, 158.93 114.89, 139.75 117 M139.75 117 C106.98 116.72, 72.53 116.91, 29.25 117 M139.75 117 C115.55 116.72, 90.13 117.74, 29.25 117 M29.25 117 C10.85 118.47, 1.64 106.67, 0 87.75 M29.25 117 C9.39 115.01, -0.36 106.39, 0 87.75 M0 87.75 C-0.32 69.54, 1.14 53.37, 0 29.25 M0 87.75 C-0.3 74.85, -0.16 61.03, 0 29.25 M0 29.25 C1.46 8.56, 10.87 0.69, 29.25 0 M0 29.25 C-0.41 11.2, 7.76 0.31, 29.25 0" stroke="#1e1e1e" stroke-width="2" fill="none"></path></g><g transform="translate(961.359992980957 42) rotate(0 35.54997253417969 25)"><text x="35.54997253417969" y="0" font-family="Virgil, Segoe UI Emoji" font-size="20px" fill="#1e1e1e" text-anchor="middle" style="white-space: pre;" direction="ltr" dominant-baseline="text-before-edge">Update</text><text x="35.54997253417969" y="25" font-family="Virgil, Segoe UI Emoji" font-size="20px" fill="#1e1e1e" text-anchor="middle" style="white-space: pre;" direction="ltr" dominant-baseline="text-before-edge">map</text></g><g stroke-linecap="round"><g transform="translate(146 63) rotate(0 45 0)"><path d="M-0.28 0.74 C15.05 0.64, 76.07 -0.57, 91.09 -0.8 M1.77 0.09 C17.11 0.14, 76.18 0.27, 90.72 0.32" stroke="#1e1e1e" stroke-width="2" fill="none"></path></g><g transform="translate(146 63) rotate(0 45 0)"><path d="M67.2 8.81 C73.8 8.76, 76.57 4.78, 90.72 0.32 M67.2 8.81 C72.41 6.39, 79.23 5.08, 90.72 0.32" stroke="#1e1e1e" stroke-width="2" fill="none"></path></g><g transform="translate(146 63) rotate(0 45 0)"><path d="M67.25 -8.29 C73.81 -4.46, 76.57 -4.55, 90.72 0.32 M67.25 -8.29 C72.55 -6.45, 79.36 -3.5, 90.72 0.32" stroke="#1e1e1e" stroke-width="2" fill="none"></path></g></g><mask></mask><g stroke-linecap="round"><g transform="translate(393 65) rotate(0 24 0.5)"><path d="M0.5 -0.37 C8.51 -0.3, 39.96 0.51, 47.94 0.72 M0.09 0.64 C8.04 0.74, 39.46 1.14, 47.47 1.28" stroke="#1e1e1e" stroke-width="2" fill="none"></path></g><g transform="translate(393 65) rotate(0 24 0.5)"><path d="M24.8 9.16 C30.38 6.76, 36.81 5.32, 47.47 1.28 M24.8 9.16 C31.38 7.21, 37.13 4.36, 47.47 1.28" stroke="#1e1e1e" stroke-width="2" fill="none"></path></g><g transform="translate(393 65) rotate(0 24 0.5)"><path d="M25.04 -7.26 C30.6 -5.12, 36.97 -2.02, 47.47 1.28 M25.04 -7.26 C31.5 -4.59, 37.19 -2.83, 47.47 1.28" stroke="#1e1e1e" stroke-width="2" fill="none"></path></g></g><mask></mask><g stroke-linecap="round"><g transform="translate(613 61) rotate(0 30 1.5)"><path d="M-0.14 -0.61 C9.8 -0.01, 50.85 2.24, 60.75 2.78 M-1.67 1.69 C8.08 2.54, 49.62 3.86, 60.2 4.2" stroke="#1e1e1e" stroke-width="2" fill="none"></path></g><g transform="translate(613 61) rotate(0 30 1.5)"><path d="M36.44 11.98 C44.77 10.21, 54.7 4.71, 60.2 4.2 M36.44 11.98 C41.82 8.98, 49.28 7.48, 60.2 4.2" stroke="#1e1e1e" stroke-width="2" fill="none"></path></g><g transform="translate(613 61) rotate(0 30 1.5)"><path d="M36.99 -5.12 C44.99 -0.2, 54.71 0.99, 60.2 4.2 M36.99 -5.12 C42.29 -3.57, 49.61 -0.54, 60.2 4.2" stroke="#1e1e1e" stroke-width="2" fill="none"></path></g></g><mask></mask><g stroke-linecap="round"><g transform="translate(851 73) rotate(0 30.5 -1)"><path d="M0.75 -0.22 C10.82 -0.53, 50.16 -2.21, 60.28 -2.42 M-0.32 -1.39 C10.15 -1.47, 52.41 -0.74, 62.61 -1.1" stroke="#1e1e1e" stroke-width="2" fill="none"></path></g><g transform="translate(851 73) rotate(0 30.5 -1)"><path d="M39.16 7.57 C45.59 3.72, 52.04 3.13, 62.61 -1.1 M39.16 7.57 C47.61 4.51, 54.48 2.21, 62.61 -1.1" stroke="#1e1e1e" stroke-width="2" fill="none"></path></g><g transform="translate(851 73) rotate(0 30.5 -1)"><path d="M39.08 -9.53 C45.45 -8.45, 51.92 -4.1, 62.61 -1.1 M39.08 -9.53 C47.4 -6.68, 54.3 -3.07, 62.61 -1.1" stroke="#1e1e1e" stroke-width="2" fill="none"></path></g></g><mask></mask></svg>